# xmcd CD database file
# Copyright (C) 1997 Ti Kan
# 
# Track frame offsets:
#     150
#     20052
#     38545
#     52050
#     72465
#     85620
#     109057
#     121015
#     133965
#     149445
# 
# Disc length: 2212 seconds
# 
# Revision: 1
# Processed by: cddbd v1.4b41PL1 Copyright (c) Steve Scherf et al.
# Submitted via: DiscPlay 4.0.3
# 
DISCID=8d08a20a
DTITLE=Bobby Bare - Bobby Bare-Biggest Hits
DYEAR=1900
DGENRE=
TTITLE0=Tequila Sheila
TTITLE1=Till I Gain Control Again
TTITLE2=Learning to Live Again
TTITLE3=Let Him Roll
TTITLE4=Greasy Grit Gravy
TTITLE5=Numbers
TTITLE6=Take Me As I Am (Or Let Me Go)
TTITLE7=Big Dupree
TTITLE8=New Cut Road
TTITLE9=Goin Back to Texas
EXTD=
EXTT0=
EXTT1=
EXTT2=
EXTT3=
EXTT4=
EXTT5=
EXTT6=
EXTT7=
EXTT8=
EXTT9=
PLAYORDER=
